<?xml version="1.0" encoding="UTF-8"?>
<svg xmlns="http://www.w3.org/2000/svg" version="1.1" viewBox="0 0 690.16 176.89" class="w-full text-inherit fill-neutral">
  <defs>
    <style>
      .cls-1 {
        fill: #010101;
      }
    </style>
  </defs>
  <!-- Generator: Adobe Illustrator 28.6.0, SVG Export Plug-In . SVG Version: 1.2.0 Build 709)  -->
  <g>
    <g id="Layer_1">
      <g>
        <path class="cls-1" d="M167.99,49.31h-42.2v9.96l7.84.87c1.74.12,1.99.62,1.99,2.49v63.62c0,1.87-.25,2.24-1.99,2.49l-7.84.87v9.84h48.8v-9.84l-17.8-1c-1.87-.25-1.99-.5-1.99-2.49v-19.92h9.09c21.04,0,34.11-8.71,34.11-30.38,0-14.32-6.97-26.52-30-26.52ZM161.02,92.88h-6.22v-30h7.35c8.84,0,16.18,2.12,16.18,14.07,0,14.07-9.09,15.94-17.31,15.94Z"/>
        <path class="cls-1" d="M231.11,126.24V45.45h-25.9l-1.37,10.08,6.85,2.37c1.24.37,1.62,1.25,1.62,2.61v65.73c0,1.87-.25,2.24-1.99,2.49l-6.23.87v9.84h35.11v-9.84l-6.1-.87c-1.87-.25-1.99-.5-1.99-2.49Z"/>
        <path class="cls-1" d="M300.82,126.12v-30.25c0-17.43-7.59-22.53-26.52-22.53-11.45,0-26.77,2.37-26.77,19.17l17.55,1.49c0-7.47,3.11-8.34,9.09-8.34,7.72,0,8.34,3.98,8.34,9.84v6.85l-14.32,1c-15.56,1-23.28,6.72-23.28,19.17,0,7.72,2.49,18.43,18.18,18.43,9.96,0,16.18-3.73,20.92-8.34l.62.12,1.25,6.72h22.91v-9.84l-5.98-1c-1.87-.25-1.99-.5-1.99-2.49ZM282.52,123.01c-2.86,2.12-7.1,4.48-11.33,4.48s-7.1-1.87-7.1-6.85,2.61-6.85,9.96-7.35l8.47-.62v10.33Z"/>
        <path class="cls-1" d="M378.13,126.24v-31.75c0-13.69-5.23-21.16-18.8-21.16-8.47,0-15.69,3.36-21.91,7.97l-.5-.25-1-6.47h-21.79l-1.49,10.08,6.72,2.37c1.24.37,1.62,1.25,1.62,2.61v36.6c0,1.87-.25,2.24-1.99,2.49l-5.6.75v9.96h34.36v-9.84l-5.98-.87c-1.87-.25-1.99-.5-1.99-2.49v-33.36c2.61-1.99,8.34-4.61,12.95-4.61,6.23,0,6.6,4.98,6.6,10.96v40.21h27.02v-9.84l-6.23-.87c-1.87-.25-1.99-.5-1.99-2.49Z"/>
        <path class="cls-1" d="M425.19,126.99c-6.72,0-8.47-2.86-8.47-10.21v-29.75h18.55v-12.45h-17.55c-1,0-1-.37-1-1.24v-17.68h-11.83c-1.37,13.57-5.73,19.05-16.68,20.29v11.08h8.71c1,0,1,.5,1,1.25v32.62c0,14.07,5.6,20.04,20.42,20.04,7.1,0,14.94-2.37,20.29-4.98l-3.36-10.96c-2.99,1.12-6.6,1.99-10.08,1.99Z"/>
        <path class="cls-1" d="M497.9,129.36v-32.99c0-17.18-5.98-22.16-23.65-22.16-9.84,0-24.03,1.74-24.03,17.06l10.71,1.12c.12-9.34,5.6-9.59,13.2-9.59,10.83,0,12.57,4.48,12.57,13.57v6.6l-16.81,1.37c-14.94,1.25-22.66,7.1-22.66,19.55,0,6.35,1.99,17.06,17.55,17.06,9.59,0,16.56-4.11,22.53-9.71l.37.12,1.12,8.09h17.43v-6.72l-6.35-.87c-1.87-.25-1.99-.5-1.99-2.49ZM486.69,122.51c-3.86,3.61-11.7,9.59-19.05,9.59-5.85,0-8.71-2.74-8.71-9.46s2.99-9.59,13.69-10.58l14.07-1.25v11.7Z"/>
        <path class="cls-1" d="M552.17,74.21c-8.71,0-15.44,3.49-21.29,7.22v-35.98h-19.17l-1.12,6.6,7.35,2.37c1.24.37,1.62,1.25,1.62,2.61v64.61c0,5.98-.75,13.2-1.49,17.8h11.08l.62-5.98.38-.25c5.35,5.1,11.83,7.72,19.3,7.72,15.69,0,26.27-10.21,26.27-35.85,0-21.91-9.59-30.88-23.53-30.88ZM547.94,131.6c-6.72,0-13.07-4.36-17.06-8.09v-32.87c4.36-3.11,11.08-6.97,18.3-6.97,8.84,0,15.06,6.35,15.06,22.41s-4.61,25.52-16.31,25.52Z"/>
        <path class="cls-1" d="M606.45,129.36V45.45h-19.3l-1.12,6.6,7.47,2.37c1.24.37,1.62,1.25,1.62,2.61v72.33c0,1.87-.25,2.37-1.99,2.49l-7.72.75v6.85h30.5v-6.72l-7.47-.87c-1.87-.25-1.99-.5-1.99-2.49Z"/>
        <path class="cls-1" d="M677.66,103.96c0-21.54-10.46-29.75-25.65-29.75s-28.38,10.58-28.38,33.37c0,18.55,7.35,33.37,29.88,33.37,8.96,0,16.43-2.12,22.66-5.6l-3.61-8.47c-6.6,3.24-10.96,4.48-17.93,4.48-13.57,0-18.68-8.59-19.05-21.16h41.83c.12-2.12.25-4.61.25-6.22ZM635.71,101.59c1-13.82,7.97-18.3,16.31-18.3,7.59,0,14.07,4.11,14.32,18.3h-30.63Z"/>
        <path class="cls-1" d="M53.72,53.89v15.3c0,1.38,1.12,2.5,2.5,2.5s2.5-1.12,2.5-2.5v-14.77c.07-.11.13-.23.18-.35,6.59-6.11,10.07-13.1,10.07-20.31,0-7.58-3.84-14.93-11.11-21.26l-1.64-1.43-1.64,1.43c-7.15,6.22-10.93,13.47-10.93,20.98s3.48,14.23,10.07,20.4ZM58.72,20.51c3.45,4.21,5.25,8.72,5.25,13.25,0,4.52-1.8,9.02-5.25,13.23v-26.48ZM53.72,20.53v26.04c-3.33-4.18-5.07-8.62-5.07-13.08s1.74-8.85,5.07-12.96Z"/>
        <path class="cls-1" d="M92.5,93.96c8.8-11.45,6.28-24.7,6.17-25.26-.21-1.03-1.04-1.83-2.08-1.98-.73-.11-18.01-2.58-30.61,7.39-4.46,3.53-7.75,8.16-9.83,13.81-2.08-5.59-5.35-10.17-9.79-13.69-12.75-10.11-30.39-7.63-31.14-7.52-1.06.16-1.9.97-2.09,2.02-.1.56-2.42,13.78,6.49,25.21,6.86,8.81,18.34,13.96,34.1,15.35v17.43c-14.06-16.82-30.79-14.04-31.58-13.89-1.3.24-2.19,1.44-2.04,2.76.03.25,3.29,24.3,33.61,25.23v18.58h-16c-1.38,0-2.5,1.12-2.5,2.5s1.12,2.5,2.5,2.5h37c1.38,0,2.5-1.12,2.5-2.5s-1.12-2.5-2.5-2.5h-16v-18.57c30.66-.78,33.95-24.98,33.98-25.23.16-1.31-.74-2.52-2.04-2.76-.79-.14-17.81-2.96-31.95,14.35v-17.9c15.68-1.41,27.04-6.55,33.78-15.32ZM94.07,73.98c-.03,4.27-.95,11-5.57,16.99-5.45,7.05-14.61,11.41-27.27,13.02,7.44-9.62,17.62-18.9,32.84-30ZM69.06,78.05c6.38-5.06,14.43-6.39,20.04-6.62-13.56,10.04-23.11,18.73-30.34,27.63.96-9.28,4.42-16.35,10.31-21.01ZM23.6,90.92c-4.61-5.88-5.67-12.48-5.79-16.75,14.28,11.12,24.42,20.35,32.61,29.73-12.36-1.67-21.38-6.03-26.83-12.98ZM22.41,71.42c5.74.19,14.23,1.47,20.87,6.75,6.07,4.82,9.56,12.17,10.37,21.83-8.01-9.08-17.8-18.03-31.24-28.59ZM53.72,135.82c-20.41-.7-26.39-12.82-28.05-18.25h.07c5.46,0,18.02,1.9,27.98,17.66v.59ZM87.07,117.56h.09c-1.63,5.47-7.6,17.69-28.44,18.27v-.03c10.02-16.31,22.83-18.24,28.35-18.24Z"/>
      </g>
    </g>
  </g>
</svg>